# xmcd
#
# Track frame offsets: 
#        182
#        11785
#        23667
#        39325
#        49607
#        62930
#        78717
#        90037
#        101310
#        114757
#        124760
#        136227
#        149537
#        162467
#        173235
#        187327
#        195905
#        207352
#        224530
#        235582
#
# Disc length: 3298 seconds
#
# Revision: 3
# Processed by: cddbd v1.5.2PL0 Copyright (c) Steve Scherf et al.
# Submitted via: ExactAudioCopy v0.99pb5
#
DISCID=0f0ce014
DTITLE=Various Artist - Songs From The Golden West - 80 County and Western Hits
DTITLE=Various Artist - CD 1
DYEAR=2007
DGENRE=Country
TTITLE0=Bobby Bare - Music City U.S.A.
TTITLE1=Dave Dudley - The most beautiful girl
TTITLE2=Karen O'Donnell - I know what it's all about now, mama
TTITLE3=David Price - Jack Knife
TTITLE4=George Kent - Mama bake a pie, daddy kill a chicken
TTITLE5=Jonny Hill - Lucille
TTITLE6=Ferlin Husky - The bridge I have never crossed
TTITLE7=Freddy Quinn - Jambalaya
TTITLE8=Norville Dollar - Who will be next
TTITLE9=Ronnie Rogers - The fool on the stool
TTITLE10=Buddy Meredith - A new girl in town
TTITLE11=Linda Manning - If only for a moment
TTITLE12=Bobby Bare - I took a memory to lunch
TTITLE13=Dave Dudley - You don't have to be a baby to cry
TTITLE14=Ferlin Husky - Little Tom
TTITLE15=Freddy Quinn - Oh, Susanna
TTITLE16=Billy Grammer - Mabel, you have been a friend to me
TTITLE17=Bobby Bare - Sylvia's mother
TTITLE18=Dave Dudley - Get me back to Tennessee
TTITLE19=Roy Baham - Linda's red dress
EXTD=
EXTT0=
EXTT1=
EXTT2=
EXTT3=
EXTT4=
EXTT5=
EXTT6=
EXTT7=
EXTT8=
EXTT9=
EXTT10=
EXTT11=
EXTT12=
EXTT13=
EXTT14=
EXTT15=
EXTT16=
EXTT17=
EXTT18=
EXTT19=
PLAYORDER=
